<svg width="15" height="15" viewBox="0 0 15 15" fill="none" xmlns="http://www.w3.org/2000/svg">
<g clip-path="url(#clip0_321_4200)">
<path d="M3.40217 14.134C3.04751 14.3673 2.66717 14.4513 2.26117 14.386C1.85517 14.3207 1.51684 14.1387 1.24617 13.84C0.966172 13.5227 0.826172 13.1493 0.826172 12.72V2.08C0.826172 1.65067 0.966172 1.27734 1.24617 0.960002C1.51684 0.661336 1.85517 0.479336 2.26117 0.414002C2.66717 0.348669 3.04751 0.432669 3.40217 0.666002L11.7322 5.986C12.0682 6.20067 12.2968 6.49 12.4182 6.854C12.5395 7.218 12.5395 7.582 12.4182 7.946C12.2968 8.31 12.0682 8.59934 11.7322 8.814L3.40217 14.134Z" fill="white"/>
</g>
<defs>
<clipPath id="clip0_321_4200">
<rect width="14" height="14" fill="white" transform="matrix(1 0 0 -1 0.826172 14.4)"/>
</clipPath>
</defs>
</svg>
