<svg width="68" height="69" viewBox="0 0 68 69" fill="none" xmlns="http://www.w3.org/2000/svg">
<g clip-path="url(#clip0_510_4253)">
<path d="M13.9649 8.79932L17.9712 12.8056C15.8633 14.9082 14.1917 17.4066 13.0524 20.1572C11.9132 22.9079 11.3287 25.8566 11.3327 28.8338C11.3327 35.0955 13.8685 40.7621 17.9712 44.862L13.9677 48.8655C11.3326 46.238 9.24272 43.1157 7.81805 39.678C6.39338 36.2403 5.66204 32.555 5.66604 28.8338C5.66129 25.1123 6.39201 21.4266 7.8162 17.9884C9.24039 14.5502 11.33 11.4274 13.9649 8.79932ZM54.0339 8.79932C56.6688 11.4274 58.7584 14.5502 60.1825 17.9884C61.6067 21.4266 62.3374 25.1123 62.3327 28.8338C62.3374 32.5553 61.6067 36.241 60.1825 39.6792C58.7584 43.1174 56.6688 46.2402 54.0339 48.8683L50.0275 44.862C52.1354 42.7594 53.8071 40.261 54.9463 37.5104C56.0856 34.7597 56.67 31.8111 56.666 28.8338C56.666 22.5721 54.1302 16.9055 50.0275 12.8056L54.031 8.80215L54.0339 8.79932ZM21.9775 16.812L25.9867 20.8211C24.9326 21.8721 24.0966 23.121 23.5267 24.4961C22.9568 25.8712 22.6643 27.3453 22.666 28.8338C22.666 31.9646 23.9354 34.798 25.9867 36.8465L21.9775 40.8556C20.3966 39.2786 19.143 37.4047 18.2886 35.3416C17.4343 33.2785 16.9962 31.0668 16.9994 28.8338C16.9994 24.139 18.9034 19.889 21.9775 16.812ZM46.0212 16.812C47.6021 18.389 48.8558 20.2629 49.7101 22.3261C50.5644 24.3892 51.0026 26.6008 50.9994 28.8338C51.0026 31.0668 50.5644 33.2785 49.7101 35.3416C48.8558 37.4047 47.6021 39.2786 46.0212 40.8556L42.012 36.8465C43.0661 35.7955 43.9022 34.5466 44.472 33.1715C45.0419 31.7965 45.3344 30.3223 45.3327 28.8338C45.3344 27.3453 45.0419 25.8712 44.472 24.4961C43.9022 23.121 43.0661 21.8721 42.012 20.8211L46.0212 16.812ZM33.9994 34.5005C32.4965 34.5005 31.0551 33.9035 29.9924 32.8408C28.9297 31.778 28.3327 30.3367 28.3327 28.8338C28.3327 27.3309 28.9297 25.8896 29.9924 24.8269C31.0551 23.7642 32.4965 23.1671 33.9994 23.1671C35.5023 23.1671 36.9436 23.7642 38.0063 24.8269C39.069 25.8896 39.666 27.3309 39.666 28.8338C39.666 30.3367 39.069 31.778 38.0063 32.8408C36.9436 33.9035 35.5023 34.5005 33.9994 34.5005ZM33.9994 40.1671C35.6427 40.1671 37.0509 41.3373 37.354 42.9523L41.0827 62.8338H26.916L30.6447 42.9523C30.9479 41.3373 32.356 40.1671 33.9994 40.1671Z" fill="#2352D5"/>
</g>
<defs>
<clipPath id="clip0_510_4253">
<rect width="68" height="68" fill="white" transform="translate(0 0.5)"/>
</clipPath>
</defs>
</svg>
