<svg width="73" height="73" viewBox="0 0 73 73" fill="none" xmlns="http://www.w3.org/2000/svg">
<g clip-path="url(#clip0_628_5120)">
<path d="M18.2507 6.08337H54.7506C55.5574 6.08337 56.331 6.40383 56.9014 6.97426C57.4719 7.54468 57.7923 8.31834 57.7923 9.12504V63.875C57.7923 64.6817 57.4719 65.4554 56.9014 66.0258C56.331 66.5962 55.5574 66.9167 54.7506 66.9167H18.2507C17.444 66.9167 16.6703 66.5962 16.0999 66.0258C15.5294 65.4554 15.209 64.6817 15.209 63.875V9.12504C15.209 8.31834 15.5294 7.54468 16.0999 6.97426C16.6703 6.40383 17.444 6.08337 18.2507 6.08337ZM36.5007 51.7084C35.694 51.7084 34.9203 52.0288 34.3499 52.5993C33.7794 53.1697 33.459 53.9433 33.459 54.75C33.459 55.5567 33.7794 56.3304 34.3499 56.9008C34.9203 57.4712 35.694 57.7917 36.5007 57.7917C37.3074 57.7917 38.081 57.4712 38.6514 56.9008C39.2219 56.3304 39.5423 55.5567 39.5423 54.75C39.5423 53.9433 39.2219 53.1697 38.6514 52.5993C38.081 52.0288 37.3074 51.7084 36.5007 51.7084Z" fill="#F2F2F2"/>
</g>
<defs>
<clipPath id="clip0_628_5120">
<rect width="73" height="73" fill="white"/>
</clipPath>
</defs>
</svg>
