<svg width="25" height="24" viewBox="0 0 25 24" fill="none" xmlns="http://www.w3.org/2000/svg">
<g clip-path="url(#clip0_54_3304)">
<path d="M9.82805 11.5H11.998C13.1915 11.5 14.3361 11.9741 15.18 12.818C16.0239 13.6619 16.498 14.8065 16.498 16H9.49705L9.49805 17H17.498V16C17.4949 14.9359 17.1875 13.895 16.612 13H19.498C20.4433 12.9997 21.3693 13.2674 22.1686 13.772C22.9679 14.2766 23.6078 14.9975 24.014 15.851C21.649 18.972 17.82 21 13.498 21C10.737 21 8.39805 20.41 6.49805 19.375V10.071C7.71466 10.2452 8.86352 10.7382 9.82805 11.5V11.5ZM4.49805 8.99996C4.74298 8.99999 4.97938 9.08991 5.16242 9.25267C5.34545 9.41543 5.46239 9.6397 5.49105 9.88296L5.49805 9.99996V19C5.49805 19.2652 5.39269 19.5195 5.20515 19.7071C5.01762 19.8946 4.76326 20 4.49805 20H2.49805C2.23283 20 1.97848 19.8946 1.79094 19.7071C1.6034 19.5195 1.49805 19.2652 1.49805 19V9.99996C1.49805 9.73474 1.6034 9.48039 1.79094 9.29285C1.97848 9.10531 2.23283 8.99996 2.49805 8.99996H4.49805ZM14.144 3.57496L14.498 3.92996L14.852 3.57596C15.0839 3.34217 15.3596 3.15648 15.6633 3.02954C15.9671 2.90259 16.2929 2.8369 16.6222 2.83622C16.9514 2.83555 17.2775 2.89991 17.5818 3.02561C17.8861 3.15131 18.1625 3.33587 18.3953 3.5687C18.6281 3.80153 18.8126 4.07805 18.9382 4.38237C19.0638 4.68669 19.128 5.01282 19.1273 5.34204C19.1265 5.67127 19.0607 5.9971 18.9337 6.30083C18.8067 6.60456 18.6209 6.88021 18.387 7.11196L14.498 11L10.608 7.10996C10.3743 6.87815 10.1886 6.60244 10.0616 6.29868C9.93468 5.99491 9.86899 5.66906 9.86832 5.33983C9.86764 5.01061 9.932 4.68449 10.0577 4.38021C10.1834 4.07592 10.368 3.79946 10.6008 3.5667C10.8336 3.33394 11.1101 3.14945 11.4145 3.02384C11.7188 2.89822 12.0449 2.83396 12.3741 2.83472C12.7034 2.83549 13.0292 2.90128 13.3329 3.02831C13.6367 3.15534 13.9123 3.34111 14.144 3.57496V3.57496Z" fill="white"/>
</g>
<defs>
<clipPath id="clip0_54_3304">
<rect width="24" height="24" fill="white" transform="translate(0.5)"/>
</clipPath>
</defs>
</svg>
