<svg width="10" height="6" viewBox="0 0 10 6" fill="none" xmlns="http://www.w3.org/2000/svg">
<path d="M5.36622 5.51354C5.20755 5.51354 5.07688 5.45754 4.97422 5.34554L1.05422 1.42554C0.932884 1.32287 0.881551 1.1922 0.900218 1.03354C0.900218 0.893538 0.951551 0.762872 1.05422 0.641538C1.16622 0.548205 1.30155 0.496871 1.46022 0.487538C1.61888 0.478205 1.74488 0.529538 1.83822 0.641538L5.36622 4.15554L8.89422 0.641538C8.99688 0.529538 9.12522 0.478205 9.27922 0.487538C9.43322 0.496871 9.56155 0.552872 9.66422 0.655538C9.76688 0.758205 9.82288 0.886538 9.83222 1.04054C9.84155 1.19454 9.79022 1.32287 9.67822 1.42554L5.75822 5.34554C5.66488 5.45754 5.53422 5.51354 5.36622 5.51354Z" fill="#4F64FF"/>
</svg>
