<svg width="114" height="55" viewBox="0 0 114 55" fill="none" xmlns="http://www.w3.org/2000/svg">
<path d="M54.2377 17.1573V26.5603H43.4223C43.4222 25.2157 43.7124 23.8866 44.2735 22.6611C44.8346 21.4355 45.6539 20.3418 46.6768 19.4524C47.6998 18.563 48.9031 17.8984 50.2067 17.5027C51.5103 17.107 52.8844 16.9892 54.2377 17.1573ZM53.036 15.8993C49.0523 15.8993 45.8258 12.7188 45.8258 8.792C45.8258 4.8652 49.0523 1.68468 53.036 1.68468C57.0196 1.68468 60.2462 4.8652 60.2462 8.792C60.2462 12.7188 57.0196 15.8993 53.036 15.8993ZM59.9975 24.0893L64.2455 19.9019L65.9459 21.5769L59.9975 27.4404L55.7482 23.2518L57.4487 21.5769L59.9963 24.0893H59.9975Z" fill="#2352D5"/>
<path d="M4.52115 44.1035C5.2735 44.1035 5.94067 44.2551 6.52267 44.5583C7.10467 44.8568 7.57311 45.2626 7.92799 45.7757C8.2876 46.2887 8.50053 46.8601 8.56677 47.4897H6.74269C6.67172 47.1166 6.53923 46.7831 6.34523 46.4893C6.15596 46.1954 5.90518 45.9622 5.59289 45.7896C5.28059 45.6171 4.90679 45.5308 4.47147 45.5308C3.92732 45.5308 3.46362 45.659 3.08035 45.9156C2.70181 46.1674 2.41081 46.5686 2.20735 47.1189C2.00861 47.6693 1.90925 48.3829 1.90925 49.2598C1.90925 50.5891 2.13164 51.5569 2.57642 52.1632C3.0212 52.7696 3.65288 53.0728 4.47147 53.0728C4.90679 53.0728 5.28059 52.9795 5.59289 52.7929C5.90518 52.6017 6.15596 52.3498 6.34523 52.0373C6.53923 51.7201 6.67172 51.375 6.74269 51.0019H8.56677C8.50999 51.459 8.3917 51.8974 8.21189 52.3172C8.03682 52.7369 7.7884 53.1124 7.46665 53.4436C7.14489 53.7701 6.74033 54.0289 6.25296 54.2201C5.77033 54.4067 5.19306 54.5 4.52115 54.5C3.57954 54.5 2.77042 54.2878 2.09378 53.8633C1.42188 53.4342 0.903758 52.8279 0.539415 52.0443C0.179805 51.2561 0 50.3209 0 49.2388C0 48.1614 0.179805 47.2402 0.539415 46.4753C0.899026 45.7104 1.41478 45.125 2.08669 44.7192C2.76332 44.3088 3.57481 44.1035 4.52115 44.1035Z" fill="black"/>
<path d="M17.2131 49.8685H12.2448V54.3601H10.52V44.2435H12.2448V48.4202H17.2131V44.2435H18.9378V54.3601H17.2131V49.8685Z" fill="black"/>
<path d="M21.4159 44.2435H23.1406V54.3601H21.4159V44.2435Z" fill="black"/>
<path d="M25.6372 44.2435H27.3832V52.8909H32.0179V54.3601H25.6301L25.6372 44.2435Z" fill="black"/>
<path d="M33.8228 44.2435C33.8654 44.2435 33.9908 44.2435 34.199 44.2435C34.4072 44.2435 34.6532 44.2435 34.9371 44.2435C35.2258 44.2435 35.5168 44.2458 35.8101 44.2505C36.1082 44.2505 36.3661 44.2528 36.5838 44.2575C37.8329 44.2808 38.8479 44.493 39.6286 44.8941C40.4141 45.2906 40.989 45.8573 41.3533 46.5942C41.7224 47.3265 41.907 48.2104 41.907 49.2458C41.907 50.3279 41.7106 51.2491 41.3179 52.0093C40.9299 52.7696 40.3337 53.3526 39.5293 53.7584C38.7296 54.1595 37.7123 54.3601 36.4773 54.3601H33.8228V44.2435ZM35.5759 45.6497V52.9538H36.5057C37.2107 52.9538 37.8329 52.8349 38.3724 52.597C38.9118 52.3545 39.3329 51.9627 39.6357 51.4216C39.9433 50.8806 40.0971 50.1577 40.0971 49.2528C40.0971 48.3759 39.9551 47.674 39.6712 47.1469C39.3873 46.6199 38.9804 46.2397 38.4504 46.0065C37.9205 45.7687 37.2864 45.6497 36.5483 45.6497H35.5759Z" fill="black"/>
<path d="M51.0019 44.1035C51.7543 44.1035 52.4215 44.2551 53.0035 44.5583C53.5855 44.8568 54.0539 45.2626 54.4088 45.7757C54.7684 46.2887 54.9813 46.8601 55.0476 47.4897H53.2235C53.1525 47.1166 53.02 46.7831 52.826 46.4893C52.6367 46.1954 52.386 45.9622 52.0737 45.7896C51.7614 45.6171 51.3876 45.5308 50.9523 45.5308C50.4081 45.5308 49.9444 45.659 49.5611 45.9156C49.1826 46.1674 48.8916 46.5686 48.6881 47.1189C48.4894 47.6693 48.39 48.3829 48.39 49.2598C48.39 50.5891 48.6124 51.5569 49.0572 52.1632C49.502 52.7696 50.1337 53.0728 50.9523 53.0728C51.3876 53.0728 51.7614 52.9795 52.0737 52.7929C52.386 52.6017 52.6367 52.3498 52.826 52.0373C53.02 51.7201 53.1525 51.375 53.2235 51.0019H55.0476C54.9908 51.459 54.8725 51.8974 54.6927 52.3172C54.5176 52.7369 54.2692 53.1124 53.9474 53.4436C53.6257 53.7701 53.2211 54.0289 52.7337 54.2201C52.2511 54.4067 51.6738 54.5 51.0019 54.5C50.0603 54.5 49.2512 54.2878 48.5746 53.8633C47.9027 53.4342 47.3845 52.8279 47.0202 52.0443C46.6606 51.2561 46.4808 50.3209 46.4808 49.2388C46.4808 48.1614 46.6606 47.2402 47.0202 46.4753C47.3798 45.7104 47.8956 45.125 48.5675 44.7192C49.2441 44.3088 50.0556 44.1035 51.0019 44.1035Z" fill="black"/>
<path d="M63.6938 49.8685H58.7255V54.3601H57.0008V44.2435H58.7255V48.4202H63.6938V44.2435H65.4185V54.3601H63.6938V49.8685Z" fill="black"/>
<path d="M67.8967 54.3601V44.2435H74.682L74.6749 45.7057H69.6356V48.5392H74.0858V49.9804H69.6214V52.8769L74.7814 52.8839V54.3601H67.8967Z" fill="black"/>
<path d="M80.7785 44.1035C81.5308 44.1035 82.198 44.2551 82.78 44.5583C83.362 44.8568 83.8304 45.2626 84.1853 45.7757C84.5449 46.2887 84.7578 46.8601 84.8241 47.4897H83C82.929 47.1166 82.7965 46.7831 82.6025 46.4893C82.4133 46.1954 82.1625 45.9622 81.8502 45.7896C81.5379 45.6171 81.1641 45.5308 80.7288 45.5308C80.1846 45.5308 79.7209 45.659 79.3377 45.9156C78.9591 46.1674 78.6681 46.5686 78.4647 47.1189C78.2659 47.6693 78.1666 48.3829 78.1666 49.2598C78.1666 50.5891 78.389 51.5569 78.8337 52.1632C79.2785 52.7696 79.9102 53.0728 80.7288 53.0728C81.1641 53.0728 81.5379 52.9795 81.8502 52.7929C82.1625 52.6017 82.4133 52.3498 82.6025 52.0373C82.7965 51.7201 82.929 51.375 83 51.0019H84.8241C84.7673 51.459 84.649 51.8974 84.4692 52.3172C84.2941 52.7369 84.0457 53.1124 83.724 53.4436C83.4022 53.7701 82.9977 54.0289 82.5103 54.2201C82.0276 54.4067 81.4504 54.5 80.7785 54.5C79.8369 54.5 79.0277 54.2878 78.3511 53.8633C77.6792 53.4342 77.1611 52.8279 76.7967 52.0443C76.4371 51.2561 76.2573 50.3209 76.2573 49.2388C76.2573 48.1614 76.4371 47.2402 76.7967 46.4753C77.1563 45.7104 77.6721 45.125 78.344 44.7192C79.0206 44.3088 79.8321 44.1035 80.7785 44.1035Z" fill="black"/>
<path d="M95.0531 54.3601H93.1439L90.2126 49.4277L88.5731 51.3237V54.3601H86.7774V44.2435H88.5731V49.1479L92.7038 44.2435H94.7124L91.4547 48.1894L95.0531 54.3601Z" fill="black"/>
<path d="M99.2425 50.1133V51.3867L95.495 51.3937V50.1203L99.2425 50.1133Z" fill="black"/>
<path d="M101.347 44.2435H103.072V54.3601H101.347V44.2435Z" fill="black"/>
<path d="M112.275 44.2435H114V54.3601H112.446L107.286 46.937V54.3601H105.561V44.2435H107.25L112.275 51.4706V44.2435Z" fill="black"/>
</svg>
