<svg width="10" height="6" viewBox="0 0 10 6" fill="none" xmlns="http://www.w3.org/2000/svg">
<path d="M4.69825 5.51354C4.53958 5.51354 4.40892 5.45754 4.30625 5.34554L0.386249 1.42554C0.264916 1.32287 0.213582 1.1922 0.232249 1.03354C0.232249 0.893538 0.283582 0.762872 0.386249 0.641538C0.498249 0.548205 0.633582 0.496871 0.792249 0.487538C0.950916 0.478205 1.07692 0.529538 1.17025 0.641538L4.69825 4.15554L8.22625 0.641538C8.32892 0.529538 8.45725 0.478205 8.61125 0.487538C8.76525 0.496871 8.89358 0.552872 8.99625 0.655538C9.09892 0.758205 9.15492 0.886538 9.16425 1.04054C9.17358 1.19454 9.12225 1.32287 9.01025 1.42554L5.09025 5.34554C4.99692 5.45754 4.86625 5.51354 4.69825 5.51354Z" fill="#4F64FF"/>
</svg>
