<svg width="54" height="69" viewBox="0 0 54 69" fill="none" xmlns="http://www.w3.org/2000/svg">
<path d="M8.00528 20.802H44.9179V37.4127C44.9179 37.9022 44.7235 38.3716 44.3773 38.7177C44.0312 39.0639 43.5618 39.2583 43.0723 39.2583H9.85091C9.36142 39.2583 8.89197 39.0639 8.54585 38.7177C8.19973 38.3716 8.00528 37.9022 8.00528 37.4127V20.802ZM35.6898 6.03694H43.0723C43.5618 6.03694 44.0312 6.23139 44.3773 6.57751C44.7235 6.92363 44.9179 7.39308 44.9179 7.88257V17.1107H8.00528V7.88257C8.00528 7.39308 8.19973 6.92363 8.54585 6.57751C8.89197 6.23139 9.36142 6.03694 9.85091 6.03694H17.2334V2.34567H20.9247V6.03694H31.9985V2.34567H35.6898V6.03694Z" fill="#2352D5"/>
<path d="M0.230469 68.5V56.4905H8.17038L8.16207 58.2263H2.26528V61.59H7.47273V63.3009H2.24867V66.7393L8.28665 66.7476V68.5H0.230469Z" fill="black"/>
<path d="M20.3342 56.4905L16.14 68.5H13.7979L9.65353 56.4905H11.6053L14.9689 66.1662L18.3824 56.4905H20.3342Z" fill="black"/>
<path d="M22.1293 68.5V56.4905H30.0692L30.0609 58.2263H24.1641V61.59H29.3716V63.3009H24.1475V66.7393L30.1855 66.7476V68.5H22.1293Z" fill="black"/>
<path d="M40.5787 56.4905H42.5969V68.5H40.7781L34.7401 59.688V68.5H32.7219V56.4905H34.6986L40.5787 65.0699V56.4905Z" fill="black"/>
<path d="M44.3997 58.3093V56.4905H53.7681V58.3093H50.1636V68.5H48.1371V58.3093H44.3997Z" fill="black"/>
</svg>
