<svg width="82" height="69" viewBox="0 0 82 69" fill="none" xmlns="http://www.w3.org/2000/svg">
<path d="M33.046 3.51619H51.1431C51.5431 3.51619 51.9267 3.67508 52.2095 3.9579C52.4923 4.24072 52.6512 4.62431 52.6512 5.02428V32.17C52.6512 32.57 52.4923 32.9536 52.2095 33.2364C51.9267 33.5192 51.5431 33.6781 51.1431 33.6781H33.046C32.646 33.6781 32.2624 33.5192 31.9796 33.2364C31.6968 32.9536 31.5379 32.57 31.5379 32.17V5.02428C31.5379 4.62431 31.6968 4.24072 31.9796 3.9579C32.2624 3.67508 32.646 3.51619 33.046 3.51619ZM42.0946 26.1376C41.6946 26.1376 41.311 26.2965 41.0282 26.5793C40.7453 26.8621 40.5865 27.2457 40.5865 27.6457C40.5865 28.0457 40.7453 28.4293 41.0282 28.7121C41.311 28.9949 41.6946 29.1538 42.0946 29.1538C42.4945 29.1538 42.8781 28.9949 43.1609 28.7121C43.4438 28.4293 43.6026 28.0457 43.6026 27.6457C43.6026 27.2457 43.4438 26.8621 43.1609 26.5793C42.8781 26.2965 42.4945 26.1376 42.0946 26.1376Z" fill="#2352D5"/>
<path d="M0.582031 53.6603V43.8472H2.94371L5.51576 51.3462L8.11497 43.8472H10.4631V53.6603H8.78682V45.9645L6.20119 53.6603H4.82355L2.25828 46.012V53.6603H0.582031Z" fill="black"/>
<path d="M16.7516 53.7961C15.8468 53.7961 15.0641 53.597 14.4035 53.1989C13.7475 52.8007 13.2385 52.2262 12.8766 51.4751C12.5192 50.7241 12.3405 49.8238 12.3405 48.7741C12.3405 47.7154 12.5214 46.8083 12.8834 46.0528C13.2453 45.2972 13.7566 44.7181 14.4171 44.3154C15.0822 43.9128 15.8604 43.7114 16.7516 43.7114C17.6429 43.7114 18.4143 43.9128 19.0658 44.3154C19.7218 44.7181 20.2286 45.2972 20.586 46.0528C20.9434 46.8083 21.1221 47.7154 21.1221 48.7741C21.1221 49.8238 20.9457 50.7241 20.5928 51.4751C20.2399 52.2216 19.7354 52.7962 19.0794 53.1989C18.4234 53.597 17.6475 53.7961 16.7516 53.7961ZM16.7516 52.4116C17.2855 52.4116 17.7447 52.2872 18.1293 52.0384C18.5139 51.785 18.8079 51.3937 19.0115 50.8643C19.2196 50.3305 19.3237 49.6405 19.3237 48.7945C19.3237 47.9349 19.2196 47.2336 19.0115 46.6907C18.8034 46.1432 18.5071 45.7406 18.1225 45.4827C17.7379 45.2248 17.281 45.0959 16.7516 45.0959C16.2178 45.0959 15.7563 45.2271 15.3672 45.4895C14.9827 45.7474 14.6841 46.15 14.4714 46.6975C14.2588 47.2404 14.1524 47.9394 14.1524 48.7945C14.1524 49.6405 14.2588 50.3305 14.4714 50.8643C14.6841 51.3937 14.9827 51.785 15.3672 52.0384C15.7563 52.2872 16.2178 52.4116 16.7516 52.4116Z" fill="black"/>
<path d="M22.9958 53.6603V43.8472H26.3687C27.6128 43.8472 28.5426 44.0689 29.1579 44.5122C29.7777 44.9511 30.0876 45.5845 30.0876 46.4124C30.0876 46.9146 29.9587 47.349 29.7008 47.7154C29.4429 48.0819 28.9882 48.3918 28.3367 48.6452C28.7349 48.7402 29.0629 48.8714 29.3207 49.0388C29.5832 49.2017 29.7867 49.3894 29.9315 49.6021C30.0763 49.8102 30.1781 50.0341 30.2369 50.2739C30.2957 50.5137 30.3251 50.7603 30.3251 51.0136C30.3251 51.9094 30.013 52.5745 29.3886 53.0089C28.7688 53.4432 27.8074 53.6603 26.5044 53.6603H22.9958ZM24.6449 52.3438H26.5247C27.2215 52.3438 27.7486 52.2194 28.106 51.9705C28.4679 51.7172 28.6489 51.353 28.6489 50.8779C28.6489 50.5341 28.5607 50.2513 28.3842 50.0296C28.2078 49.8034 27.968 49.636 27.6649 49.5274C27.3617 49.4188 27.0224 49.3645 26.6469 49.3645H24.6449V52.3438ZM24.6449 48.0276H26.6469C26.8776 48.0276 27.1016 48.0027 27.3188 47.953C27.5359 47.9032 27.7327 47.824 27.9092 47.7154C28.0856 47.6069 28.2259 47.4621 28.3299 47.2811C28.4385 47.1001 28.4928 46.8807 28.4928 46.6228C28.4928 46.1297 28.305 45.7632 27.9295 45.5234C27.5585 45.2791 27.0812 45.157 26.4976 45.157H24.6449V48.0276Z" fill="black"/>
<path d="M32.3404 43.8472H33.9895V53.6603H32.3404V43.8472Z" fill="black"/>
<path d="M36.3766 43.8472H38.0461V52.2352H42.4776V53.6603H36.3698L36.3766 43.8472Z" fill="black"/>
<path d="M44.2034 53.6603V43.8472H50.6912L50.6844 45.2655H45.8661V48.014H50.1211V49.412H45.8525V52.2216L50.7862 52.2284V53.6603H44.2034Z" fill="black"/>
<path d="M55.0089 53.6603L58.5378 43.8472H60.3226L63.8448 53.6603H62.1889L61.3134 51.1969H57.5673L56.6715 53.6603H55.0089ZM57.9474 49.731H60.9063L59.4336 45.4556L57.9474 49.731Z" fill="black"/>
<path d="M65.4905 53.6603V43.8472H68.9719C69.6777 43.8472 70.3089 43.9693 70.8653 44.2136C71.4264 44.4534 71.8675 44.8086 72.1887 45.2791C72.5099 45.7496 72.6705 46.3287 72.6705 47.0164C72.6705 47.6634 72.5235 48.2176 72.2294 48.6791C71.9399 49.1406 71.5349 49.4935 71.0146 49.7378C70.4944 49.9821 69.8858 50.1043 69.1891 50.1043H67.1667V53.6603H65.4905ZM67.1532 48.7809H69.1484C69.723 48.7809 70.1912 48.609 70.5532 48.2651C70.9196 47.9213 71.1029 47.4734 71.1029 46.9214C71.1029 46.3604 70.9128 45.9261 70.5328 45.6184C70.1528 45.3063 69.6755 45.1502 69.1009 45.1502H67.1532V48.7809Z" fill="black"/>
<path d="M74.2386 53.6603V43.8472H77.7201C78.4259 43.8472 79.057 43.9693 79.6135 44.2136C80.1745 44.4534 80.6156 44.8086 80.9368 45.2791C81.258 45.7496 81.4187 46.3287 81.4187 47.0164C81.4187 47.6634 81.2716 48.2176 80.9775 48.6791C80.688 49.1406 80.2831 49.4935 79.7628 49.7378C79.2425 49.9821 78.634 50.1043 77.9372 50.1043H75.9149V53.6603H74.2386ZM75.9013 48.7809H77.8965C78.4711 48.7809 78.9394 48.609 79.3013 48.2651C79.6678 47.9213 79.851 47.4734 79.851 46.9214C79.851 46.3604 79.661 45.9261 79.2809 45.6184C78.9009 45.3063 78.4236 45.1502 77.849 45.1502H75.9013V48.7809Z" fill="black"/>
<path d="M14.1151 68.3643V58.5511H17.488C18.7322 58.5511 19.6619 58.7728 20.2772 59.2162C20.897 59.655 21.2069 60.2884 21.2069 61.1164C21.2069 61.6186 21.078 62.0529 20.8201 62.4194C20.5622 62.7858 20.1075 63.0957 19.456 63.3491C19.8542 63.4441 20.1822 63.5753 20.4401 63.7427C20.7025 63.9056 20.9061 64.0933 21.0508 64.306C21.1956 64.5141 21.2974 64.7381 21.3562 64.9778C21.4151 65.2176 21.4445 65.4642 21.4445 65.7176C21.4445 66.6134 21.1323 67.2784 20.5079 67.7128C19.8881 68.1471 18.9267 68.3643 17.6237 68.3643H14.1151ZM15.7642 67.0477H17.6441C18.3408 67.0477 18.8679 66.9233 19.2253 66.6745C19.5872 66.4211 19.7682 66.0569 19.7682 65.5818C19.7682 65.238 19.68 64.9552 19.5035 64.7335C19.3271 64.5073 19.0873 64.3399 18.7842 64.2313C18.4811 64.1228 18.1417 64.0685 17.7662 64.0685H15.7642V67.0477ZM15.7642 62.7315H17.7662C17.997 62.7315 18.2209 62.7067 18.4381 62.6569C18.6552 62.6071 18.852 62.5279 19.0285 62.4194C19.2049 62.3108 19.3452 62.166 19.4493 61.985C19.5578 61.8041 19.6121 61.5846 19.6121 61.3267C19.6121 60.8336 19.4244 60.4671 19.0489 60.2273C18.6779 59.983 18.2006 59.8609 17.6169 59.8609H15.7642V62.7315Z" fill="black"/>
<path d="M30.8604 64.781C30.8604 65.5592 30.7337 66.2265 30.4804 66.783C30.227 67.335 29.8221 67.7603 29.2656 68.0589C28.7136 68.353 27.9852 68.5 27.0804 68.5C26.1755 68.5 25.4449 68.3507 24.8884 68.0521C24.3364 67.749 23.936 67.3146 23.6872 66.7491C23.4383 66.179 23.3139 65.4914 23.3139 64.686V58.5511H25.0037V64.8557C25.0037 65.6158 25.1892 66.1768 25.5602 66.5387C25.9357 66.9007 26.4425 67.0816 27.0804 67.0816C27.5102 67.0816 27.8834 67.0025 28.2001 66.8441C28.5168 66.6858 28.7612 66.4437 28.9331 66.118C29.105 65.7877 29.191 65.3669 29.191 64.8557V58.5511H30.8604V64.781Z" fill="black"/>
<path d="M33.0031 58.5511H34.6522V68.3643H33.0031V58.5511Z" fill="black"/>
<path d="M37.0394 58.5511H38.7088V66.9391H43.1404V68.3643H37.0326L37.0394 58.5511Z" fill="black"/>
<path d="M44.8661 58.5511C44.9068 58.5511 45.0267 58.5511 45.2258 58.5511C45.4249 58.5511 45.6601 58.5511 45.9316 58.5511C46.2076 58.5511 46.4858 58.5534 46.7663 58.5579C47.0513 58.5579 47.2979 58.5601 47.506 58.5647C48.7005 58.5873 49.6709 58.7931 50.4174 59.1822C51.1684 59.5668 51.7182 60.1165 52.0665 60.8313C52.4194 61.5417 52.5959 62.399 52.5959 63.4034C52.5959 64.453 52.4081 65.3466 52.0326 66.084C51.6616 66.8215 51.0915 67.387 50.3224 67.7806C49.5578 68.1697 48.5851 68.3643 47.4042 68.3643H44.8661V58.5511ZM46.5424 59.9152V67.0002H47.4314C48.1055 67.0002 48.7005 66.8848 49.2162 66.6541C49.732 66.4188 50.1347 66.0388 50.4242 65.514C50.7183 64.9892 50.8653 64.2879 50.8653 63.4102C50.8653 62.5596 50.7296 61.8787 50.4581 61.3675C50.1867 60.8562 49.7976 60.4875 49.2909 60.2613C48.7841 60.0305 48.1779 59.9152 47.4721 59.9152H46.5424Z" fill="black"/>
<path d="M54.4758 68.3643V58.5511H60.9636L60.9568 59.9695H56.1385V62.718H60.3936V64.116H56.1249V66.9256L61.0586 66.9323V68.3643H54.4758Z" fill="black"/>
<path d="M70.4741 68.3643H68.7503L67.0605 64.3806H64.7803V68.3643H63.1312V58.5511H67.1148C67.8658 58.5511 68.4834 58.6687 68.9675 58.904C69.4561 59.1347 69.818 59.4627 70.0533 59.888C70.2886 60.3088 70.4062 60.8019 70.4062 61.3675C70.4062 61.8923 70.3202 62.3334 70.1483 62.6908C69.9764 63.0437 69.7524 63.3333 69.4765 63.5595C69.205 63.7812 68.9132 63.9621 68.601 64.1024L70.4741 68.3643ZM66.7415 63.0709C67.3659 63.0709 67.8522 62.9261 68.2006 62.6365C68.5535 62.347 68.73 61.9443 68.73 61.4285C68.73 60.9218 68.5671 60.5305 68.2413 60.2545C67.9156 59.9785 67.4858 59.8405 66.9519 59.8405H64.7803V63.0709H66.7415Z" fill="black"/>
</svg>
