<svg width="136" height="69" viewBox="0 0 136 69" fill="none" xmlns="http://www.w3.org/2000/svg">
<path d="M55.2528 5.69524L57.8164 8.20312C56.4676 9.51927 55.3979 11.0832 54.6689 12.8051C53.9399 14.5269 53.5659 16.3727 53.5685 18.2364C53.5685 22.1561 55.1911 25.7033 57.8164 28.2697L55.2546 30.7758C53.5684 29.131 52.2311 27.1765 51.3195 25.0246C50.4079 22.8727 49.9399 20.5658 49.9424 18.2364C49.9394 15.9068 50.407 13.5996 51.3183 11.4474C52.2296 9.29519 53.5667 7.34035 55.2528 5.69524ZM80.8926 5.69524C82.5786 7.34035 83.9157 9.29519 84.827 11.4474C85.7384 13.5996 86.2059 15.9068 86.2029 18.2364C86.2059 20.566 85.7384 22.8731 84.827 25.0254C83.9157 27.1776 82.5786 29.1324 80.8926 30.7776L78.3289 28.2697C79.6778 26.9535 80.7474 25.3896 81.4764 23.6677C82.2054 21.9459 82.5794 20.1001 82.5769 18.2364C82.5769 14.3167 80.9542 10.7695 78.3289 8.20312L80.8926 5.69524ZM60.38 10.711L62.9454 13.2206C62.2709 13.8785 61.736 14.6603 61.3713 15.5211C61.0067 16.3818 60.8195 17.3046 60.8206 18.2364C60.8206 20.1962 61.6328 21.9698 62.9454 23.2522L60.38 25.7618C59.3684 24.7746 58.5662 23.6016 58.0195 22.3101C57.4728 21.0186 57.1925 19.6342 57.1945 18.2364C57.1945 15.2975 58.4129 12.6371 60.38 10.711ZM75.7653 10.711C76.7769 11.6982 77.5791 12.8712 78.1258 14.1627C78.6725 15.4542 78.9529 16.8386 78.9508 18.2364C78.9529 19.6342 78.6725 21.0186 78.1258 22.3101C77.5791 23.6016 76.7769 24.7746 75.7653 25.7618L73.1999 23.2522C73.8744 22.5943 74.4094 21.8125 74.774 20.9517C75.1387 20.091 75.3258 19.1682 75.3248 18.2364C75.3258 17.3046 75.1387 16.3818 74.774 15.5211C74.4094 14.6603 73.8744 13.8785 73.1999 13.2206L75.7653 10.711ZM68.0727 21.7836C67.111 21.7836 66.1887 21.4099 65.5087 20.7447C64.8287 20.0794 64.4466 19.1772 64.4466 18.2364C64.4466 17.2956 64.8287 16.3934 65.5087 15.7281C66.1887 15.0629 67.111 14.6892 68.0727 14.6892C69.0344 14.6892 69.9567 15.0629 70.6367 15.7281C71.3167 16.3934 71.6987 17.2956 71.6987 18.2364C71.6987 19.1772 71.3167 20.0794 70.6367 20.7447C69.9567 21.4099 69.0344 21.7836 68.0727 21.7836ZM68.0727 25.3308C69.1242 25.3308 70.0253 26.0633 70.2193 27.0743L72.6052 39.5196H63.5401L65.926 27.0743C66.12 26.0633 67.0211 25.3308 68.0727 25.3308Z" fill="#2352D5"/>
<path d="M0.500346 56.7995H2.50736V66.6643H7.83493V68.3404H0.492188L0.500346 56.7995Z" fill="black"/>
<path d="M9.90964 56.7995H11.8922V68.3404H9.90964V56.7995Z" fill="black"/>
<path d="M24.1607 56.7995L20.0406 68.3404H17.7399L13.6687 56.7995H15.586L18.8902 66.0976L22.2434 56.7995H24.1607Z" fill="black"/>
<path d="M25.9241 68.3404V56.7995H33.7237L33.7156 58.4676H27.923V61.7H33.0384V63.3441H27.9066V66.6484L33.8379 66.6563V68.3404H25.9241Z" fill="black"/>
<path d="M44.0298 68.5C43.4587 68.5 42.9012 68.4308 42.3573 68.2925C41.8134 68.1488 41.3185 67.9387 40.8725 67.662C40.4319 67.38 40.0648 67.0314 39.771 66.6164C39.4773 66.1961 39.2978 65.7066 39.2326 65.1479H41.2885C41.3756 65.5363 41.5469 65.8635 41.8025 66.1296C42.0582 66.3956 42.3764 66.5978 42.7571 66.7361C43.1433 66.8745 43.5648 66.9437 44.0217 66.9437C44.5112 66.9437 44.9518 66.8798 45.3434 66.7521C45.7404 66.6244 46.0532 66.4382 46.2816 66.1934C46.5155 65.9487 46.6324 65.648 46.6324 65.2915C46.6324 64.9776 46.5481 64.7116 46.3795 64.4934C46.2109 64.2753 45.9743 64.097 45.6697 63.9587C45.3706 63.815 45.0197 63.7006 44.6173 63.6155L42.4471 63.1526C41.5714 62.977 40.8779 62.6365 40.3666 62.131C39.8553 61.6255 39.5943 60.9524 39.5834 60.1117C39.578 59.4147 39.7656 58.8081 40.1463 58.292C40.5325 57.7706 41.0574 57.3689 41.7209 57.0869C42.3845 56.7995 43.1351 56.6559 43.9727 56.6559C44.9518 56.6559 45.7758 56.8128 46.4448 57.1268C47.1192 57.4354 47.6278 57.8504 47.9704 58.3718C48.3185 58.8933 48.4953 59.4653 48.5008 60.0878H46.4937C46.4448 59.6302 46.3034 59.2657 46.0695 58.9944C45.841 58.723 45.5473 58.5288 45.1884 58.4117C44.8294 58.2947 44.4323 58.2361 43.9972 58.2361C43.6709 58.2361 43.3663 58.2734 43.0834 58.3479C42.8006 58.4224 42.5531 58.5315 42.341 58.6751C42.1289 58.8188 41.963 58.9944 41.8433 59.2019C41.7291 59.4041 41.672 59.6355 41.672 59.8962C41.672 60.2687 41.7971 60.572 42.0473 60.8061C42.3029 61.0349 42.7788 61.2291 43.475 61.3887L45.5963 61.8516C46.2544 61.9793 46.7847 62.1709 47.1872 62.4263C47.5897 62.6817 47.897 62.9743 48.1091 63.3042C48.3213 63.6288 48.4627 63.9613 48.5334 64.3019C48.6041 64.6424 48.6394 64.967 48.6394 65.2756C48.6394 65.8768 48.4491 66.4222 48.0683 66.9117C47.693 67.4012 47.16 67.7897 46.4693 68.077C45.7839 68.359 44.9708 68.5 44.0298 68.5Z" fill="black"/>
<path d="M49.7291 58.5474V56.7995H58.932V58.5474H55.3912V68.3404H53.4005V58.5474H49.7291Z" fill="black"/>
<path d="M69.5373 68.3404H67.465L65.4336 63.6554H62.6923V68.3404H60.7097V56.7995H65.4988C66.4017 56.7995 67.1441 56.9379 67.7261 57.2146C68.3135 57.4859 68.7487 57.8717 69.0315 58.3718C69.3143 58.8667 69.4557 59.4466 69.4557 60.1117C69.4557 60.729 69.3524 61.2477 69.1457 61.6681C68.939 62.0831 68.6698 62.4236 68.338 62.6897C68.0117 62.9504 67.6609 63.1632 67.2856 63.3282L69.5373 68.3404ZM65.0501 62.115C65.8007 62.115 66.3854 61.9448 66.8042 61.6042C67.2284 61.2637 67.4406 60.7901 67.4406 60.1836C67.4406 59.5876 67.2448 59.1274 66.8532 58.8028C66.4615 58.4782 65.9448 58.316 65.303 58.316H62.6923V62.115H65.0501Z" fill="black"/>
<path d="M71.9119 68.3404V56.7995H79.7115L79.7033 58.4676H73.9107V61.7H79.0262V63.3441H73.8944V66.6484L79.8257 66.6563V68.3404H71.9119Z" fill="black"/>
<path d="M81.285 68.3404L85.5274 56.7995H87.6732L91.9075 68.3404H89.9168L88.8643 65.4432H84.3608L83.2838 68.3404H81.285ZM84.8176 63.7192H88.3748L86.6044 58.6911L84.8176 63.7192Z" fill="black"/>
<path d="M93.8859 68.3404V56.7995H96.7251L99.8172 65.6188L102.942 56.7995H105.765V68.3404H103.75V59.2897L100.641 68.3404H98.9851L95.9011 59.3455V68.3404H93.8859Z" fill="black"/>
<path d="M108.626 56.7995H110.608V68.3404H108.626V56.7995Z" fill="black"/>
<path d="M121.188 56.7995H123.17V68.3404H121.384L115.452 59.8723V68.3404H113.47V56.7995H115.412L121.188 65.0441V56.7995Z" fill="black"/>
<path d="M130.595 68.5C129.54 68.5 128.624 68.2632 127.846 67.7897C127.068 67.3161 126.47 66.6404 126.051 65.7624C125.632 64.8792 125.423 63.8257 125.423 62.6019C125.423 61.3675 125.64 60.3033 126.075 59.4094C126.51 58.5155 127.122 57.8318 127.911 57.3582C128.705 56.8793 129.635 56.6399 130.701 56.6399C131.354 56.6399 131.955 56.7463 132.504 56.9592C133.059 57.172 133.543 57.4593 133.957 57.8211C134.375 58.1829 134.704 58.5953 134.944 59.0582C135.183 59.5211 135.316 60.0027 135.344 60.5028H133.247C133.171 60.1091 133.016 59.7473 132.782 59.4174C132.553 59.0822 132.257 58.8135 131.892 58.6113C131.533 58.4091 131.123 58.308 130.66 58.308C130.068 58.308 129.537 58.4543 129.07 58.7469C128.607 59.0396 128.243 59.4998 127.976 60.1277C127.715 60.7502 127.585 61.559 127.585 62.554C127.585 63.3415 127.666 64.0066 127.829 64.5493C127.998 65.0867 128.226 65.5203 128.515 65.8502C128.808 66.1748 129.146 66.4116 129.526 66.5606C129.907 66.7042 130.31 66.7761 130.734 66.7761C131.147 66.7761 131.512 66.7069 131.827 66.5685C132.143 66.4302 132.409 66.2493 132.627 66.0258C132.85 65.8023 133.021 65.5629 133.141 65.3075C133.266 65.0468 133.339 64.7941 133.361 64.5493L133.434 63.7033H130.799V62.3305L135.507 62.3465V68.3404H134.103V66.7202C133.902 67.0128 133.647 67.2948 133.337 67.5662C133.032 67.8376 132.657 68.061 132.211 68.2366C131.77 68.4122 131.232 68.5 130.595 68.5Z" fill="black"/>
</svg>
