<svg width="122" height="53" viewBox="0 0 122 53" fill="none" xmlns="http://www.w3.org/2000/svg">
<path d="M46.6533 6.33408C46.6533 5.5231 47.3213 4.86791 48.1097 4.86791H74.5602C75.3647 4.86791 76.0166 5.5231 76.0166 6.33408V25.2515H46.6533V6.33408ZM45.1851 28.1634H77.4847V31.0754H45.1851V28.1634Z" fill="#2352D5"/>
<path d="M12.6564 42.895L9.84855 52.369H8.49416L6.56499 45.6533L4.6094 52.369H3.28805L0.5 42.895H2.08562L4.0214 49.7351L5.96378 42.895H7.16621L9.12181 49.7351L11.0642 42.895H12.6564Z" fill="black"/>
<path d="M14.0889 52.369V42.895H20.405L20.3984 44.2643H15.7076V46.9178H19.85V48.2675H15.6944V50.98L20.4975 50.9865V52.369H14.0889Z" fill="black"/>
<path d="M22.5151 52.369V42.895H25.7987C27.0099 42.895 27.915 43.109 28.5141 43.537C29.1175 43.9607 29.4192 44.5722 29.4192 45.3716C29.4192 45.8564 29.2936 46.2757 29.0426 46.6295C28.7915 46.9833 28.3489 47.2825 27.7146 47.5271C28.1022 47.6189 28.4216 47.7455 28.6726 47.9071C28.9281 48.0644 29.1263 48.2457 29.2672 48.4509C29.4082 48.6519 29.5073 48.8681 29.5645 49.0996C29.6218 49.3311 29.6504 49.5691 29.6504 49.8137C29.6504 50.6786 29.3465 51.3207 28.7387 51.74C28.1353 52.1593 27.1993 52.369 25.9308 52.369H22.5151ZM24.1206 51.0979H25.9506C26.6289 51.0979 27.1421 50.9778 27.49 50.7375C27.8424 50.4929 28.0185 50.1413 28.0185 49.6827C28.0185 49.3507 27.9327 49.0777 27.7609 48.8637C27.5891 48.6453 27.3557 48.4837 27.0606 48.3789C26.7655 48.274 26.4351 48.2216 26.0696 48.2216H24.1206V51.0979ZM24.1206 46.9309H26.0696C26.2942 46.9309 26.5122 46.9069 26.7236 46.8588C26.935 46.8108 27.1266 46.7344 27.2984 46.6295C27.4702 46.5247 27.6067 46.3849 27.708 46.2102C27.8137 46.0355 27.8666 45.8236 27.8666 45.5747C27.8666 45.0986 27.6838 44.7448 27.3182 44.5133C26.9571 44.2774 26.4924 44.1595 25.9242 44.1595H24.1206V46.9309Z" fill="black"/>
<path d="M34.9704 52.5C34.5079 52.5 34.0565 52.4432 33.616 52.3297C33.1756 52.2117 32.7748 52.0392 32.4136 51.8121C32.0568 51.5806 31.7595 51.2945 31.5217 50.9538C31.2838 50.6087 31.1385 50.2068 31.0856 49.7482H32.7505C32.821 50.0671 32.9597 50.3357 33.1668 50.5541C33.3738 50.7725 33.6314 50.9385 33.9397 51.052C34.2525 51.1656 34.5938 51.2224 34.9638 51.2224C35.3602 51.2224 35.717 51.17 36.0341 51.0651C36.3556 50.9603 36.6089 50.8074 36.7939 50.6065C36.9832 50.4056 37.0779 50.1588 37.0779 49.8661C37.0779 49.6084 37.0097 49.39 36.8731 49.211C36.7366 49.0319 36.545 48.8856 36.2984 48.772C36.0561 48.6541 35.772 48.5601 35.4461 48.4903L33.6887 48.1102C32.9796 47.9661 32.418 47.6866 32.004 47.2716C31.5899 46.8567 31.3785 46.3041 31.3697 45.614C31.3653 45.0418 31.5173 44.5438 31.8256 44.1202C32.1383 43.6921 32.5633 43.3623 33.1007 43.1308C33.638 42.895 34.2459 42.777 34.9241 42.777C35.717 42.777 36.3842 42.9059 36.926 43.1636C37.4721 43.4169 37.884 43.7576 38.1615 44.1857C38.4433 44.6137 38.5865 45.0833 38.5909 45.5943H36.9656C36.926 45.2187 36.8115 44.9195 36.6221 44.6967C36.4371 44.474 36.1992 44.3145 35.9086 44.2184C35.6179 44.1223 35.2963 44.0743 34.944 44.0743C34.6797 44.0743 34.433 44.1049 34.204 44.166C33.975 44.2272 33.7746 44.3167 33.6028 44.4347C33.431 44.5526 33.2967 44.6967 33.1998 44.8671C33.1073 45.0331 33.061 45.2231 33.061 45.4371C33.061 45.7428 33.1623 45.9918 33.365 46.184C33.572 46.3718 33.9574 46.5312 34.5211 46.6623L36.2389 47.0423C36.7718 47.1471 37.2013 47.3044 37.5272 47.514C37.8531 47.7237 38.102 47.9639 38.2738 48.2347C38.4455 48.5012 38.5601 48.7742 38.6173 49.0537C38.6746 49.3333 38.7032 49.5997 38.7032 49.853C38.7032 50.3466 38.549 50.7943 38.2407 51.1962C37.9368 51.598 37.5052 51.9169 36.9458 52.1528C36.3908 52.3843 35.7324 52.5 34.9704 52.5Z" fill="black"/>
<path d="M40.5546 42.895H42.1601V52.369H40.5546V42.895Z" fill="black"/>
<path d="M43.5987 44.3298V42.895H51.0511V44.3298H48.1838V52.369H46.5717V44.3298H43.5987Z" fill="black"/>
<path d="M52.4907 52.369V42.895H58.8067L58.8001 44.2643H54.1093V46.9178H58.2517V48.2675H54.0961V50.98L58.8992 50.9865V52.369H52.4907Z" fill="black"/>
<path d="M66.6332 52.369V42.895H69.9168C71.128 42.895 72.0331 43.109 72.6322 43.537C73.2356 43.9607 73.5373 44.5722 73.5373 45.3716C73.5373 45.8564 73.4118 46.2757 73.1607 46.6295C72.9096 46.9833 72.467 47.2825 71.8327 47.5271C72.2203 47.6189 72.5397 47.7455 72.7907 47.9071C73.0462 48.0644 73.2444 48.2457 73.3853 48.4509C73.5263 48.6519 73.6254 48.8681 73.6826 49.0996C73.7399 49.3311 73.7685 49.5691 73.7685 49.8137C73.7685 50.6786 73.4646 51.3207 72.8568 51.74C72.2534 52.1593 71.3174 52.369 70.0489 52.369H66.6332ZM68.2387 51.0979H70.0687C70.747 51.0979 71.2602 50.9778 71.6081 50.7375C71.9605 50.4929 72.1367 50.1413 72.1367 49.6827C72.1367 49.3507 72.0508 49.0777 71.879 48.8637C71.7072 48.6453 71.4738 48.4837 71.1787 48.3789C70.8836 48.274 70.5532 48.2216 70.1877 48.2216H68.2387V51.0979ZM68.2387 46.9309H70.1877C70.4123 46.9309 70.6303 46.9069 70.8417 46.8588C71.0531 46.8108 71.2447 46.7344 71.4165 46.6295C71.5883 46.5247 71.7248 46.3849 71.8261 46.2102C71.9318 46.0355 71.9847 45.8236 71.9847 45.5747C71.9847 45.0986 71.8019 44.7448 71.4363 44.5133C71.0752 44.2774 70.6105 44.1595 70.0423 44.1595H68.2387V46.9309Z" fill="black"/>
<path d="M82.9352 48.9096C82.9352 49.6609 82.8119 50.3051 82.5652 50.8424C82.3185 51.3753 81.9243 51.7858 81.3826 52.0741C80.8452 52.358 80.1361 52.5 79.2552 52.5C78.3743 52.5 77.663 52.3559 77.1212 52.0676C76.5839 51.7749 76.1941 51.3556 75.9518 50.8096C75.7096 50.2593 75.5885 49.5953 75.5885 48.8179V42.895H77.2336V48.9816C77.2336 49.7155 77.4141 50.2571 77.7753 50.6065C78.1409 50.9559 78.6342 51.1307 79.2552 51.1307C79.6736 51.1307 80.037 51.0542 80.3453 50.9013C80.6536 50.7485 80.8915 50.5148 81.0589 50.2003C81.2262 49.8814 81.3099 49.4752 81.3099 48.9816V42.895H82.9352V48.9096Z" fill="black"/>
<path d="M85.0211 42.895H86.6266V52.369H85.0211V42.895Z" fill="black"/>
<path d="M88.9505 42.895H90.5758V50.9931H94.89V52.369H88.9439L88.9505 42.895Z" fill="black"/>
<path d="M96.57 42.895C96.6097 42.895 96.7264 42.895 96.9202 42.895C97.114 42.895 97.343 42.895 97.6073 42.895C97.876 42.895 98.1469 42.8971 98.4199 42.9015C98.6974 42.9015 98.9375 42.9037 99.1401 42.9081C100.303 42.9299 101.248 43.1286 101.974 43.5043C102.706 43.8756 103.241 44.4063 103.58 45.0964C103.923 45.7822 104.095 46.6099 104.095 47.5795C104.095 48.5929 103.912 49.4556 103.547 50.1675C103.186 50.8795 102.631 51.4255 101.882 51.8055C101.138 52.1811 100.191 52.369 99.041 52.369H96.57V42.895ZM98.2019 44.2119V51.052H99.0674C99.7237 51.052 100.303 50.9407 100.805 50.7179C101.307 50.4908 101.699 50.1239 101.981 49.6172C102.267 49.1105 102.41 48.4335 102.41 47.5861C102.41 46.7649 102.278 46.1076 102.014 45.614C101.75 45.1204 101.371 44.7644 100.878 44.546C100.384 44.3233 99.7941 44.2119 99.107 44.2119H98.2019Z" fill="black"/>
<path d="M105.925 52.369V42.895H112.241L112.235 44.2643H107.544V46.9178H111.686V48.2675H107.531V50.98L112.334 50.9865V52.369H105.925Z" fill="black"/>
<path d="M121.5 52.369H119.822L118.177 48.523H115.957V52.369H114.351V42.895H118.23C118.961 42.895 119.562 43.0085 120.033 43.2357C120.509 43.4584 120.861 43.7751 121.09 44.1857C121.319 44.5919 121.434 45.068 121.434 45.614C121.434 46.1207 121.35 46.5465 121.183 46.8916C121.015 47.2323 120.797 47.5118 120.529 47.7302C120.265 47.9443 119.98 48.119 119.677 48.2544L121.5 52.369ZM117.866 47.2585C118.474 47.2585 118.948 47.1187 119.287 46.8392C119.63 46.5596 119.802 46.1709 119.802 45.673C119.802 45.1837 119.644 44.8059 119.326 44.5395C119.009 44.273 118.591 44.1398 118.071 44.1398H115.957V47.2585H117.866Z" fill="black"/>
</svg>
