<svg width="42" height="69" viewBox="0 0 42 69" fill="none" xmlns="http://www.w3.org/2000/svg">
<path d="M16.4393 20.3744H20.1463C22.1852 20.3744 24.1405 21.1937 25.5822 22.6521C27.0239 24.1106 27.8338 26.0886 27.8338 28.1512H15.8738L15.8755 29.8793H29.5422V28.1512C29.5368 26.3123 29.0116 24.5134 28.0286 22.9666H32.9588C34.5737 22.9662 36.1555 23.4288 37.521 24.3009C38.8865 25.1729 39.9796 26.4187 40.6737 27.8937C36.6335 33.2873 30.0923 36.792 22.7088 36.792C17.9921 36.792 13.9963 35.7724 10.7505 33.9838V17.9048C12.8289 18.206 14.7915 19.058 16.4393 20.3744ZM7.33385 16.0539C7.75228 16.054 8.15613 16.2094 8.46882 16.4907C8.7815 16.7719 8.98127 17.1595 9.03022 17.5799L9.04218 17.7821V33.3357C9.04218 33.794 8.8622 34.2336 8.54182 34.5577C8.22145 34.8818 7.78693 35.0639 7.33385 35.0639H3.91718C3.4641 35.0639 3.02958 34.8818 2.70921 34.5577C2.38883 34.2336 2.20885 33.794 2.20885 33.3357V17.7821C2.20885 17.3238 2.38883 16.8842 2.70921 16.5601C3.02958 16.236 3.4641 16.0539 3.91718 16.0539H7.33385ZM23.8124 6.67856L24.4172 7.29206L25.0219 6.68028C25.4179 6.27627 25.8889 5.95536 26.4079 5.73598C26.9268 5.51659 27.4835 5.40306 28.0459 5.4019C28.6083 5.40073 29.1654 5.51196 29.6852 5.72919C30.2051 5.94642 30.6774 6.26538 31.075 6.66775C31.4726 7.07012 31.7878 7.54798 32.0024 8.0739C32.217 8.59982 32.3268 9.16344 32.3255 9.7324C32.3241 10.3014 32.2118 10.8645 31.9947 11.3894C31.7777 11.9143 31.4604 12.3906 31.0609 12.7911L24.4172 19.5103L17.7718 12.7877C17.3724 12.3871 17.0552 11.9106 16.8383 11.3856C16.6214 10.8607 16.5092 10.2975 16.5081 9.72858C16.5069 9.15962 16.6169 8.59604 16.8316 8.07018C17.0463 7.54432 17.3616 7.06655 17.7594 6.66429C18.1571 6.26203 18.6295 5.94321 19.1494 5.72613C19.6693 5.50904 20.2264 5.39798 20.7888 5.3993C21.3513 5.40063 21.9079 5.51432 22.4268 5.73385C22.9456 5.95338 23.4165 6.27443 23.8124 6.67856Z" fill="#2352D5"/>
<path d="M8.3925 68.5C7.39825 68.5 6.53469 68.2693 5.80181 67.8079C5.06894 67.3464 4.50519 66.688 4.11056 65.8326C3.71594 64.9719 3.51863 63.9454 3.51863 62.7529C3.51863 61.5501 3.72362 60.5132 4.13363 59.6422C4.54362 58.7712 5.12019 58.105 5.86331 57.6436C6.61156 57.177 7.48794 56.9437 8.49244 56.9437C9.10744 56.9437 9.67375 57.0474 10.1914 57.2547C10.7141 57.4621 11.1702 57.7421 11.5597 58.0946C11.9544 58.4472 12.2644 58.849 12.4899 59.3C12.7154 59.7511 12.841 60.2203 12.8666 60.7076H10.8909C10.8192 60.324 10.6731 59.9714 10.4528 59.65C10.2375 59.3234 9.95819 59.0616 9.61481 58.8645C9.27656 58.6675 8.88963 58.569 8.454 58.569C7.89538 58.569 7.39569 58.7116 6.95494 58.9967C6.51931 59.2819 6.17594 59.7304 5.92481 60.3421C5.67881 60.9487 5.55581 61.7368 5.55581 62.7063C5.55581 63.4736 5.63269 64.1217 5.78644 64.6505C5.94531 65.1741 6.16056 65.5967 6.43219 65.9181C6.70894 66.2344 7.02669 66.4651 7.38544 66.6102C7.74419 66.7502 8.12344 66.8202 8.52319 66.8202C8.91269 66.8202 9.25606 66.7528 9.55331 66.618C9.85056 66.4832 10.1017 66.3069 10.3067 66.0892C10.5168 65.8714 10.6783 65.6381 10.791 65.3893C10.9089 65.1352 10.9781 64.889 10.9986 64.6505L11.0677 63.8261H8.58469V62.4885L13.0204 62.5041V68.3445H11.6981V66.7658C11.5085 67.0509 11.2676 67.3257 10.9755 67.5901C10.6885 67.8545 10.3349 68.0723 9.91463 68.2434C9.4995 68.4145 8.99212 68.5 8.3925 68.5Z" fill="black"/>
<path d="M15.5737 57.0992H17.4418V68.3445H15.5737V57.0992Z" fill="black"/>
<path d="M29.0018 57.0992L25.1197 68.3445H22.9518L19.1157 57.0992H20.9223L24.0357 66.1592L27.1953 57.0992H29.0018Z" fill="black"/>
<path d="M30.6634 68.3445V57.0992H38.0127L38.005 58.7246H32.5469V61.8742H37.3669V63.4762H32.5315V66.6958L38.1203 66.7036V68.3445H30.6634Z" fill="black"/>
</svg>
