<svg width="98" height="69" viewBox="0 0 98 69" fill="none" xmlns="http://www.w3.org/2000/svg">
<path d="M48.5564 16.9522C50.5397 16.9522 52.4419 17.7401 53.8443 19.1426C55.2468 20.545 56.0347 22.4471 56.0347 24.4305V33.4044H41.0781V24.4305C41.0781 22.4471 41.866 20.545 43.2684 19.1426C44.6709 17.7401 46.573 16.9522 48.5564 16.9522ZM38.5175 21.4482C38.2795 22.251 38.1389 23.0796 38.0988 23.916L38.0868 24.4305V33.4044H33.5998V26.674C33.5995 25.3841 34.0755 24.1395 34.9364 23.1789C35.7973 22.2184 36.9825 21.6095 38.2648 21.4691L38.519 21.4482H38.5175ZM58.5952 21.4482C59.9262 21.5293 61.1761 22.1152 62.09 23.0863C63.0038 24.0574 63.5127 25.3405 63.5129 26.674V33.4044H59.026V24.4305C59.026 23.394 58.8764 22.3934 58.5952 21.4482ZM38.8346 12.4652C39.8263 12.4652 40.7774 12.8592 41.4786 13.5604C42.1798 14.2616 42.5738 15.2127 42.5738 16.2044C42.5738 17.1961 42.1798 18.1471 41.4786 18.8484C40.7774 19.5496 39.8263 19.9435 38.8346 19.9435C37.8429 19.9435 36.8919 19.5496 36.1907 18.8484C35.4894 18.1471 35.0955 17.1961 35.0955 16.2044C35.0955 15.2127 35.4894 14.2616 36.1907 13.5604C36.8919 12.8592 37.8429 12.4652 38.8346 12.4652ZM58.2782 12.4652C59.2698 12.4652 60.2209 12.8592 60.9221 13.5604C61.6233 14.2616 62.0173 15.2127 62.0173 16.2044C62.0173 17.1961 61.6233 18.1471 60.9221 18.8484C60.2209 19.5496 59.2698 19.9435 58.2782 19.9435C57.2865 19.9435 56.3354 19.5496 55.6342 18.8484C54.933 18.1471 54.539 17.1961 54.539 16.2044C54.539 15.2127 54.933 14.2616 55.6342 13.5604C56.3354 12.8592 57.2865 12.4652 58.2782 12.4652ZM48.5564 3.49131C50.1431 3.49131 51.6648 4.12162 52.7867 5.24358C53.9087 6.36554 54.539 7.88725 54.539 9.47394C54.539 11.0606 53.9087 12.5823 52.7867 13.7043C51.6648 14.8263 50.1431 15.4566 48.5564 15.4566C46.9697 15.4566 45.448 14.8263 44.326 13.7043C43.2041 12.5823 42.5738 11.0606 42.5738 9.47394C42.5738 7.88725 43.2041 6.36554 44.326 5.24358C45.448 4.12162 46.9697 3.49131 48.5564 3.49131Z" fill="#2352D5"/>
<path d="M22.9407 43.9159C23.6541 43.9159 24.2867 44.0617 24.8386 44.3534C25.3905 44.6405 25.8347 45.0309 26.1713 45.5245C26.5123 46.018 26.7142 46.5677 26.777 47.1734H25.0473C24.98 46.8145 24.8543 46.4937 24.6704 46.211C24.4909 45.9283 24.2531 45.704 23.957 45.5379C23.6608 45.3719 23.3063 45.2889 22.8935 45.2889C22.3775 45.2889 21.9378 45.4123 21.5744 45.6591C21.2154 45.9014 20.9395 46.2873 20.7465 46.8167C20.5581 47.3462 20.4638 48.0327 20.4638 48.8762C20.4638 50.155 20.6747 51.0861 21.0965 51.6694C21.5183 52.2527 22.1173 52.5443 22.8935 52.5443C23.3063 52.5443 23.6608 52.4546 23.957 52.2751C24.2531 52.0912 24.4909 51.8489 24.6704 51.5482C24.8543 51.2431 24.98 50.9111 25.0473 50.5521H26.777C26.7232 50.9919 26.611 51.4136 26.4405 51.8175C26.2745 52.2213 26.0389 52.5825 25.7338 52.9011C25.4287 53.2151 25.045 53.4642 24.5829 53.6481C24.1252 53.8276 23.5778 53.9174 22.9407 53.9174C22.0477 53.9174 21.2805 53.7132 20.6388 53.3049C20.0017 52.8921 19.5104 52.3088 19.1649 51.555C18.8239 50.7967 18.6534 49.897 18.6534 48.8561C18.6534 47.8196 18.8239 46.9334 19.1649 46.1975C19.5059 45.4617 19.995 44.8985 20.6321 44.5082C21.2737 44.1133 22.0433 43.9159 22.9407 43.9159Z" fill="black"/>
<path d="M34.9761 49.4618H30.2648V53.7827H28.6293V44.0505H30.2648V48.0686H34.9761V44.0505H36.6116V53.7827H34.9761V49.4618Z" fill="black"/>
<path d="M46.3406 50.2291C46.3406 51.0008 46.215 51.6627 45.9637 52.2146C45.7125 52.762 45.3109 53.1837 44.759 53.4799C44.2116 53.7715 43.4892 53.9174 42.5918 53.9174C41.6944 53.9174 40.9697 53.7693 40.4178 53.4731C39.8704 53.1725 39.4733 52.7418 39.2266 52.1809C38.9798 51.6155 38.8564 50.9335 38.8564 50.1348V44.0505H40.5323V50.3031C40.5323 51.0569 40.7162 51.6133 41.0842 51.9723C41.4566 52.3312 41.9591 52.5107 42.5918 52.5107C43.018 52.5107 43.3882 52.4322 43.7023 52.2751C44.0164 52.1181 44.2587 51.878 44.4292 51.555C44.5997 51.2274 44.685 50.8101 44.685 50.3031V44.0505H46.3406V50.2291Z" fill="black"/>
<path d="M55.748 53.7827H54.0385L52.3626 49.832H50.1012V53.7827H48.4657V44.0505H52.4165C53.1613 44.0505 53.7738 44.1672 54.2539 44.4005C54.7385 44.6293 55.0974 44.9546 55.3307 45.3764C55.5641 45.7937 55.6807 46.2828 55.6807 46.8436C55.6807 47.3641 55.5955 47.8016 55.425 48.1561C55.2545 48.5061 55.0324 48.7932 54.7587 49.0176C54.4894 49.2374 54.2 49.4169 53.8904 49.556L55.748 53.7827ZM52.0463 48.533C52.6655 48.533 53.1478 48.3894 53.4933 48.1022C53.8433 47.8151 54.0183 47.4157 54.0183 46.9042C54.0183 46.4017 53.8568 46.0136 53.5337 45.7399C53.2107 45.4661 52.7844 45.3293 52.2549 45.3293H50.1012V48.533H52.0463Z" fill="black"/>
<path d="M61.3253 43.9159C62.0387 43.9159 62.6714 44.0617 63.2232 44.3534C63.7751 44.6405 64.2194 45.0309 64.5559 45.5245C64.8969 46.018 65.0988 46.5677 65.1616 47.1734H63.4319C63.3646 46.8145 63.239 46.4937 63.055 46.211C62.8755 45.9283 62.6377 45.704 62.3416 45.5379C62.0454 45.3719 61.6909 45.2889 61.2781 45.2889C60.7621 45.2889 60.3224 45.4123 59.959 45.6591C59.6 45.9014 59.3241 46.2873 59.1311 46.8167C58.9427 47.3462 58.8485 48.0327 58.8485 48.8762C58.8485 50.155 59.0593 51.0861 59.4811 51.6694C59.9029 52.2527 60.5019 52.5443 61.2781 52.5443C61.6909 52.5443 62.0454 52.4546 62.3416 52.2751C62.6377 52.0912 62.8755 51.8489 63.055 51.5482C63.239 51.2431 63.3646 50.9111 63.4319 50.5521H65.1616C65.1078 50.9919 64.9956 51.4136 64.8251 51.8175C64.6591 52.2213 64.4235 52.5825 64.1184 52.9011C63.8133 53.2151 63.4296 53.4642 62.9675 53.6481C62.5098 53.8276 61.9624 53.9174 61.3253 53.9174C60.4324 53.9174 59.6651 53.7132 59.0234 53.3049C58.3863 52.8921 57.895 52.3088 57.5495 51.555C57.2085 50.7967 57.038 49.897 57.038 48.8561C57.038 47.8196 57.2085 46.9334 57.5495 46.1975C57.8905 45.4617 58.3796 44.8985 59.0167 44.5082C59.6584 44.1133 60.4279 43.9159 61.3253 43.9159Z" fill="black"/>
<path d="M73.3607 49.4618H68.6494V53.7827H67.0139V44.0505H68.6494V48.0686H73.3607V44.0505H74.9962V53.7827H73.3607V49.4618Z" fill="black"/>
<path d="M0.0839844 68.3654V58.6332H2.42618L4.97702 66.0703L7.55479 58.6332H9.88352V68.3654H8.2211V60.7331L5.6568 68.3654H4.29052L1.74641 60.7802V68.3654H0.0839844Z" fill="black"/>
<path d="M11.5233 68.3654L15.0232 58.6332H16.7933L20.2864 68.3654H18.6442L17.7759 65.9222H14.0607L13.1723 68.3654H11.5233ZM14.4376 64.4685H17.3721L15.9116 60.2283L14.4376 64.4685Z" fill="black"/>
<path d="M28.2855 58.6332H29.921V68.3654H28.4471L23.554 61.2244V68.3654H21.9185V58.6332H23.5204L28.2855 65.5857V58.6332Z" fill="black"/>
<path d="M31.5569 68.3654L35.0568 58.6332H36.8269L40.32 68.3654H38.6778L37.8095 65.9222H34.0943L33.2059 68.3654H31.5569ZM34.4712 64.4685H37.4057L35.9452 60.2283L34.4712 64.4685Z" fill="black"/>
<path d="M45.2479 68.5C44.3775 68.5 43.6214 68.3003 42.9798 67.901C42.3382 67.5016 41.8446 66.9318 41.4991 66.1915C41.1536 65.4466 40.9808 64.5582 40.9808 63.5262C40.9808 62.4852 41.1603 61.5878 41.5193 60.834C41.8782 60.0802 42.383 59.5036 43.0336 59.1043C43.6887 58.7005 44.456 58.4985 45.3354 58.4985C45.8739 58.4985 46.3697 58.5883 46.8229 58.7678C47.2805 58.9472 47.6799 59.1895 48.0209 59.4947C48.3664 59.7998 48.6379 60.1475 48.8353 60.5379C49.0327 60.9282 49.1426 61.3343 49.1651 61.7561H47.4353C47.3725 61.424 47.2446 61.1189 47.0517 60.8407C46.8633 60.5581 46.6187 60.3315 46.3181 60.161C46.0219 59.9905 45.6832 59.9052 45.3018 59.9052C44.8127 59.9052 44.3752 60.0286 43.9893 60.2754C43.608 60.5222 43.3073 60.9103 43.0875 61.4398C42.8721 61.9647 42.7644 62.6468 42.7644 63.4858C42.7644 64.1499 42.8317 64.7108 42.9663 65.1684C43.1054 65.6216 43.2939 65.9873 43.5317 66.2655C43.774 66.5392 44.0522 66.7389 44.3663 66.8645C44.6803 66.9856 45.0124 67.0462 45.3624 67.0462C45.7034 67.0462 46.004 66.9879 46.2642 66.8712C46.5245 66.7546 46.7444 66.602 46.9238 66.4136C47.1078 66.2251 47.2491 66.0232 47.3478 65.8078C47.451 65.588 47.5116 65.3748 47.5296 65.1684L47.5901 64.455H45.4162V63.2974L49.2997 63.3108V68.3654H48.142V66.9991C47.976 67.2459 47.7651 67.4837 47.5094 67.7125C47.2581 67.9414 46.9485 68.1298 46.5806 68.2779C46.2171 68.426 45.7729 68.5 45.2479 68.5Z" fill="black"/>
<path d="M51.5351 68.3654V58.6332H57.9694L57.9627 60.0398H53.1841V62.7657H57.4041V64.1521H53.1706V66.9385L58.0637 66.9453V68.3654H51.5351Z" fill="black"/>
<path d="M60.1191 68.3654V58.6332H62.4613L65.0121 66.0703L67.5899 58.6332H69.9186V68.3654H68.2562V60.7331L65.6919 68.3654H64.3256L61.7815 60.7802V68.3654H60.1191Z" fill="black"/>
<path d="M72.2786 68.3654V58.6332H78.7129L78.7062 60.0398H73.9276V62.7657H78.1476V64.1521H73.9141V66.9385L78.8071 66.9453V68.3654H72.2786Z" fill="black"/>
<path d="M87.2296 58.6332H88.8651V68.3654H87.3911L82.4981 61.2244V68.3654H80.8626V58.6332H82.4644L87.2296 65.5857V58.6332Z" fill="black"/>
<path d="M90.326 60.1071V58.6332H97.9179V60.1071H94.9969V68.3654H93.3547V60.1071H90.326Z" fill="black"/>
</svg>
